<svg width="16" height="16" viewBox="0 0 16 16" fill="none" xmlns="http://www.w3.org/2000/svg">
<path d="M3.71875 8V11.6667C3.71875 11.6667 3.71875 13.5 7.99653 13.5C12.2743 13.5 12.2743 11.6667 12.2743 11.6667V8" stroke="#101010"/>
<path d="M3.71875 4.33398V8.00065C3.71875 8.00065 3.71875 9.83398 7.99653 9.83398C12.2743 9.83398 12.2743 8.00065 12.2743 8.00065V4.33398" stroke="#101010"/>
<path d="M7.99653 2.5C12.2743 2.5 12.2743 4.33333 12.2743 4.33333C12.2743 4.33333 12.2743 6.16667 7.99653 6.16667C3.71875 6.16667 3.71875 4.33333 3.71875 4.33333C3.71875 4.33333 3.71875 2.5 7.99653 2.5Z" stroke="#101010"/>
</svg>
