<svg width="20" height="20" viewBox="0 0 20 20" fill="none" xmlns="http://www.w3.org/2000/svg">
<path d="M8.20454 5.34991C8.62381 4.12286 10.3191 4.08569 10.8162 5.23843L10.8582 5.35061L11.424 7.00539C11.5537 7.38489 11.7632 7.73216 12.0385 8.02379C12.3138 8.31542 12.6484 8.54461 13.0198 8.69592L13.1719 8.75271L14.8265 9.31786C16.0535 9.73716 16.0906 11.4326 14.9387 11.9297L14.8265 11.9718L13.1719 12.5377C12.7923 12.6672 12.4449 12.8768 12.1532 13.1521C11.8615 13.4274 11.6322 13.7621 11.4808 14.1335L11.424 14.285L10.8589 15.9405C10.4397 17.1675 8.7444 17.2047 8.24801 16.0526L8.20454 15.9405L7.63945 14.2857C7.50987 13.9061 7.30037 13.5586 7.02509 13.2669C6.74981 12.9751 6.41516 12.7458 6.04372 12.5944L5.89228 12.5377L4.23766 11.9725C3.01001 11.5532 2.97285 9.85777 4.12548 9.36133L4.23766 9.31786L5.89228 8.75271C6.27174 8.62304 6.61899 8.41348 6.91059 8.13818C7.20219 7.86289 7.43136 7.52825 7.58266 7.15684L7.63945 7.00539L8.20454 5.34991Z" stroke="#101010" stroke-width="1.25"/>
<path d="M15.2393 3.125H15.2402C15.2641 3.12503 15.2873 3.13195 15.3076 3.14453C15.3265 3.15629 15.3419 3.17289 15.3525 3.19238L15.3643 3.22266L15.625 3.98535L15.7246 4.27539L16.0146 4.375L16.7891 4.63867C16.8131 4.64684 16.8341 4.66246 16.8496 4.68262C16.865 4.7027 16.8743 4.72671 16.876 4.75195C16.8776 4.77735 16.8721 4.80319 16.8594 4.8252C16.8479 4.84499 16.8304 4.85987 16.8105 4.87109L16.7705 4.8877L16.0156 5.14551L15.7246 5.24512L15.626 5.53613L15.3623 6.30957C15.3541 6.33368 15.3386 6.35563 15.3184 6.37109C15.2982 6.38644 15.2733 6.39488 15.248 6.39648C15.2355 6.39724 15.223 6.3964 15.2109 6.39355L15.1758 6.37988L15.1465 6.35645C15.1389 6.34839 15.1332 6.33891 15.1279 6.3291L15.1152 6.29785L14.8555 5.53613L14.7559 5.24609L14.4648 5.14648L13.6914 4.88281H13.6904C13.6664 4.87461 13.6453 4.85903 13.6299 4.83887C13.6146 4.81881 13.6052 4.79471 13.6035 4.76953C13.6019 4.74411 13.6083 4.71831 13.6211 4.69629C13.6326 4.67655 13.6492 4.66062 13.6689 4.64941L13.709 4.63281L14.4648 4.37598L14.7549 4.27637L14.8545 3.98535L15.1182 3.21191C15.1268 3.18661 15.1433 3.16498 15.165 3.14941C15.1868 3.13389 15.2126 3.12507 15.2393 3.125Z" fill="#101010" stroke="#101010" stroke-width="1.25"/>
</svg>
