<svg width="16" height="16" viewBox="0 0 16 16" fill="none" xmlns="http://www.w3.org/2000/svg">
<path d="M9.71049 6.43916H11.1222M9.71049 8.81565H11.1222M4.00828 11.8539H3.59619C2.98808 11.8539 2.49512 11.3609 2.49512 10.7528V5.24744C2.49512 4.63933 2.98808 4.14636 3.59619 4.14636H12.4048C13.0129 4.14636 13.5059 4.63933 13.5059 5.24744V10.7528C13.5059 11.3609 13.0129 11.8539 12.4048 11.8539H8.09336M4.00828 11.8539C3.91508 10.8349 4.51772 9.63267 6.01025 9.60781C7.50277 9.58296 8.09336 11.0057 8.09336 11.8539M4.00828 11.8539H8.09336M7.11132 6.81194C7.11132 7.42005 6.61835 7.91302 6.01025 7.91302C5.40214 7.91302 4.90917 7.42005 4.90917 6.81194C4.90917 6.20384 5.40214 5.71087 6.01025 5.71087C6.61835 5.71087 7.11132 6.20384 7.11132 6.81194Z" stroke="currentColor" stroke-linecap="round" stroke-linejoin="round"/>
</svg>
