<svg width="16" height="16" viewBox="0 0 16 16" fill="none" xmlns="http://www.w3.org/2000/svg">
<path d="M2.51172 4.3493C2.51172 5.14709 4.61366 5.79382 7.20654 5.79382C9.79942 5.79382 11.9014 5.14709 11.9014 4.3493C11.9014 3.55152 9.79942 2.90479 7.20654 2.90479C4.61366 2.90479 2.51172 3.55152 2.51172 4.3493ZM2.51172 4.3493V11.0904C2.51172 11.4735 3.00635 11.8409 3.8868 12.1118C4.76725 12.3827 5.9614 12.5349 7.20654 12.5349M2.51172 7.71985C2.51172 8.10296 3.00635 8.47038 3.8868 8.74128C4.76725 9.01218 5.9614 9.16437 7.20654 9.16437" stroke="#101010" stroke-linecap="round" stroke-linejoin="round"></path>
<path d="M13.641 10.395C13.641 11.8948 12.5912 12.6447 11.3434 13.0796C11.278 13.1017 11.2071 13.1007 11.1424 13.0766C9.89162 12.6447 8.8418 11.8948 8.8418 10.395V8.29539C8.8418 8.21584 8.8734 8.13955 8.92965 8.0833C8.9859 8.02704 9.06219 7.99544 9.14175 7.99544C9.74165 7.99544 10.4915 7.6355 11.0134 7.17958C11.077 7.12529 11.1578 7.09546 11.2414 7.09546C11.325 7.09546 11.4058 7.12529 11.4694 7.17958C11.9943 7.6385 12.7411 7.99544 13.341 7.99544C13.4206 7.99544 13.4969 8.02704 13.5531 8.0833C13.6094 8.13955 13.641 8.21584 13.641 8.29539V10.395Z" stroke="#101010" stroke-linecap="round" stroke-linejoin="round"></path>
<path d="M10.2061 10.455L10.8271 11.0761L12.2764 9.62689" stroke="#101010" stroke-width="0.6" stroke-linecap="round" stroke-linejoin="round"></path>
</svg>