<svg width="16" height="16" viewBox="0 0 16 16" fill="none" xmlns="http://www.w3.org/2000/svg">
<path d="M8.4209 9.49414L8.41895 9.49707C8.37027 9.56725 8.29632 9.62386 8.17578 9.65234L8.03906 9.6709C7.84018 9.68236 7.69883 9.62667 7.58887 9.5166V9.51562C7.47807 9.40482 7.42642 9.27006 7.44141 9.08496C7.45692 8.89446 7.52624 8.78589 7.62988 8.7168L7.63672 8.71191L10.3721 6.77344L8.4209 9.49414Z" fill="#101010" stroke="#101010" stroke-width="0.518519"/>
<path d="M3.28766 12.1326C2.77801 11.3087 2.48438 10.3406 2.48438 9.30481C2.48438 6.30169 4.95293 3.86719 7.99805 3.86719C11.0432 3.86719 13.5117 6.30169 13.5117 9.30481C13.5117 10.3406 13.2181 11.3087 12.7084 12.1326" stroke="#101010" stroke-linecap="round"/>
</svg>
