<svg width="16" height="16" viewBox="0 0 16 16" fill="none" xmlns="http://www.w3.org/2000/svg">
<path d="M6.15656 5.46425C6.92044 5.46425 7.53969 4.845 7.53969 4.08112C7.53969 3.31724 6.92044 2.698 6.15656 2.698C5.39268 2.698 4.77344 3.31724 4.77344 4.08112C4.77344 4.845 5.39268 5.46425 6.15656 5.46425Z" stroke="white" stroke-linecap="round" stroke-linejoin="round"/>
<path d="M12.1488 8.23061C12.9126 8.23061 13.5319 7.61136 13.5319 6.84748C13.5319 6.0836 12.9126 5.46436 12.1488 5.46436C11.3849 5.46436 10.7656 6.0836 10.7656 6.84748C10.7656 7.61136 11.3849 8.23061 12.1488 8.23061Z" stroke="white" stroke-linecap="round" stroke-linejoin="round"/>
<path d="M12.1488 12.841C12.9126 12.841 13.5319 12.2217 13.5319 11.4578C13.5319 10.694 12.9126 10.0747 12.1488 10.0747C11.3849 10.0747 10.7656 10.694 10.7656 11.4578C10.7656 12.2217 11.3849 12.841 12.1488 12.841Z" stroke="white" stroke-linecap="round" stroke-linejoin="round"/>
<path d="M3.85188 13.3019C4.61576 13.3019 5.235 12.6826 5.235 11.9188C5.235 11.1549 4.61576 10.5356 3.85188 10.5356C3.088 10.5356 2.46875 11.1549 2.46875 11.9188C2.46875 12.6826 3.088 13.3019 3.85188 13.3019Z" stroke="white" stroke-linecap="round" stroke-linejoin="round"/>
<path d="M7.33512 6.78882L6.71875 5.34497" stroke="white" stroke-linecap="round" stroke-linejoin="round"/>
<path d="M10.8386 7.28467L9.65625 7.71557" stroke="white" stroke-linecap="round" stroke-linejoin="round"/>
<path d="M11.0605 10.609L9.3125 9.26367" stroke="white" stroke-linecap="round" stroke-linejoin="round"/>
<path d="M6.72505 9.34497L4.88672 10.9999" stroke="white" stroke-linecap="round" stroke-linejoin="round"/>
<path d="M8 9.73071C8.82843 9.73071 9.5 9.05914 9.5 8.23071C9.5 7.40229 8.82843 6.73071 8 6.73071C7.17157 6.73071 6.5 7.40229 6.5 8.23071C6.5 9.05914 7.17157 9.73071 8 9.73071Z" stroke="white" stroke-linecap="round" stroke-linejoin="round"/>
</svg>
